<svg xmlns="http://www.w3.org/2000/svg">
  <symbol viewBox="0 -960 960 960" id="hamburger-menu">
    <path d="M120-240v-80h720v80H120Zm0-200v-80h720v80H120Zm0-200v-80h720v80H120Z"/>
  </symbol>

  <symbol viewBox="0 -960 960 960" id="search">
    <path d="M765-144 526-383q-30 22-65.79 34.5-35.79 12.5-76.18 12.5Q284-336 214-406t-70-170q0-100 70-170t170-70q100 0 170 70t70 170.03q0 40.39-12.5 76.18Q599-464 577-434l239 239-51 51ZM384-408q70 0 119-49t49-119q0-70-49-119t-119-49q-70 0-119 49t-49 119q0 70 49 119t119 49Z"/>
  </symbol>

  <symbol viewBox="0 -960 960 960" id="clear">
    <path d="m256-200-56-56 224-224-224-224 56-56 224 224 224-224 56 56-224 224 224 224-56 56-224-224-224 224Z"/>
  </symbol>

  <symbol viewBox="0 0 576 512" id="star">
    <path d="M316.9 18C311.6 7 300.4 0 288.1 0s-23.4 7-28.8 18L195 150.3 51.4 171.5c-12 1.8-22 10.2-25.7 21.7s-.7 24.2 7.9 32.7L137.8 329 113.2 474.7c-2 12 3 24.2 12.9 31.3s23 8 33.8 2.3l128.3-68.5 128.3 68.5c10.8 5.7 23.9 4.9 33.8-2.3s14.9-19.3 12.9-31.3L438.5 329 542.7 225.9c8.6-8.5 11.7-21.2 7.9-32.7s-13.7-19.9-25.7-21.7L381.2 150.3 316.9 18z"/>
  </symbol>

  <symbol viewBox="0 -960 960 960" id="favorite">
    <path d="m480-120-58-52q-101-91-167-157T150-447.5Q111-500 95.5-544T80-634q0-94 63-157t157-63q52 0 99 22t81 62q34-40 81-62t99-22q94 0 157 63t63 157q0 46-15.5 90T810-447.5Q771-395 705-329T538-172l-58 52Z"/>
  </symbol>

  <symbol viewBox="0 -960 960 960" id="chevron-left">
    <path d="M560-240 320-480l240-240 56 56-184 184 184 184-56 56Z"/>
  </symbol>

  <symbol viewBox="0 -960 960 960" id="chevron-right">
    <path d="M504-480 320-664l56-56 240 240-240 240-56-56 184-184Z"/>
  </symbol>

  <symbol viewBox="0 -960 960 960" id="double-chevron-left">    
    <path d="M440-240 200-480l240-240 56 56-183 184 183 184-56 56Zm264 0L464-480l240-240 56 56-183 184 183 184-56 56Z"/>
  </symbol>

  <symbol viewBox="0 -960 960 960" id="double-chevron-right">
    <path d="M383-480 200-664l56-56 240 240-240 240-56-56 183-184Zm264 0L464-664l56-56 240 240-240 240-56-56 183-184Z"/>
  </symbol>

  <!-- <symbol viewBox="0 -960 960 960" id="ellipsis">
    <path d="M240-400q-33 0-56.5-23.5T160-480q0-33 23.5-56.5T240-560q33 0 56.5 23.5T320-480q0 33-23.5 56.5T240-400Zm240 0q-33 0-56.5-23.5T400-480q0-33 23.5-56.5T480-560q33 0 56.5 23.5T560-480q0 33-23.5 56.5T480-400Zm240 0q-33 0-56.5-23.5T640-480q0-33 23.5-56.5T720-560q33 0 56.5 23.5T800-480q0 33-23.5 56.5T720-400Z"></path>
  </symbol> -->
</svg>