<svg xmlns="http://www.w3.org/2000/svg">
    <symbol viewBox="0 -960 960 960" id="hamburger-menu">
      <path d="M120-240v-80h720v80H120Zm0-200v-80h720v80H120Zm0-200v-80h720v80H120Z"/>
    </symbol>

  <symbol viewBox="0 -960 960 960" id="search">
    <path d="M765-144 526-383q-30 22-65.79 34.5-35.79 12.5-76.18 12.5Q284-336 214-406t-70-170q0-100 70-170t170-70q100 0 170 70t70 170.03q0 40.39-12.5 76.18Q599-464 577-434l239 239-51 51ZM384-408q70 0 119-49t49-119q0-70-49-119t-119-49q-70 0-119 49t-49 119q0 70 49 119t119 49Z"/>
  </symbol>

  <symbol viewBox="0 -960 960 960" id="clear">
    <path d="m256-200-56-56 224-224-224-224 56-56 224 224 224-224 56 56-224 224 224 224-56 56-224-224-224 224Z"/>
  </symbol>

  <symbol viewBox="0 0 576 512" id="star">
    <path d="M316.9 18C311.6 7 300.4 0 288.1 0s-23.4 7-28.8 18L195 150.3 51.4 171.5c-12 1.8-22 10.2-25.7 21.7s-.7 24.2 7.9 32.7L137.8 329 113.2 474.7c-2 12 3 24.2 12.9 31.3s23 8 33.8 2.3l128.3-68.5 128.3 68.5c10.8 5.7 23.9 4.9 33.8-2.3s14.9-19.3 12.9-31.3L438.5 329 542.7 225.9c8.6-8.5 11.7-21.2 7.9-32.7s-13.7-19.9-25.7-21.7L381.2 150.3 316.9 18z"/>
  </symbol>
</svg>